<mxfile host="app.diagrams.net" modified="2023-09-07T20:54:28.544Z" agent="Mozilla/5.0 (Windows NT 10.0; Win64; x64) AppleWebKit/537.36 (KHTML, like Gecko) Chrome/116.0.0.0 Safari/537.36 Edg/116.0.1938.69" etag="Oek4RTLhFVT63rm-HWyx" version="21.7.2" type="device">
  <diagram name="Страница — 1" id="hG0_mYMv5_AS9JiIkc6T">
    <mxGraphModel dx="2213" dy="751" grid="1" gridSize="10" guides="1" tooltips="1" connect="1" arrows="1" fold="1" page="1" pageScale="1" pageWidth="827" pageHeight="1169" math="0" shadow="0">
      <root>
        <mxCell id="0" />
        <mxCell id="1" parent="0" />
        <mxCell id="Dje9QthW423mXFM0m1nJ-9" style="edgeStyle=orthogonalEdgeStyle;rounded=0;orthogonalLoop=1;jettySize=auto;html=1;exitX=0.5;exitY=0;exitDx=0;exitDy=0;exitPerimeter=0;entryX=0.5;entryY=1;entryDx=0;entryDy=0;" parent="1" source="Dje9QthW423mXFM0m1nJ-2" target="Dje9QthW423mXFM0m1nJ-10" edge="1">
          <mxGeometry relative="1" as="geometry">
            <mxPoint x="295" y="270" as="targetPoint" />
          </mxGeometry>
        </mxCell>
        <mxCell id="Dje9QthW423mXFM0m1nJ-35" style="edgeStyle=orthogonalEdgeStyle;rounded=0;orthogonalLoop=1;jettySize=auto;html=1;exitX=0;exitY=0.3333333333333333;exitDx=0;exitDy=0;exitPerimeter=0;entryX=1;entryY=0.3333333333333333;entryDx=0;entryDy=0;entryPerimeter=0;" parent="1" source="Dje9QthW423mXFM0m1nJ-2" target="Dje9QthW423mXFM0m1nJ-34" edge="1">
          <mxGeometry relative="1" as="geometry" />
        </mxCell>
        <mxCell id="Dje9QthW423mXFM0m1nJ-55" style="edgeStyle=orthogonalEdgeStyle;rounded=0;orthogonalLoop=1;jettySize=auto;html=1;exitX=0;exitY=1;exitDx=0;exitDy=0;exitPerimeter=0;entryX=0;entryY=0.3333333333333333;entryDx=0;entryDy=0;entryPerimeter=0;" parent="1" source="Dje9QthW423mXFM0m1nJ-2" target="Dje9QthW423mXFM0m1nJ-48" edge="1">
          <mxGeometry relative="1" as="geometry" />
        </mxCell>
        <mxCell id="Dje9QthW423mXFM0m1nJ-2" value="Менеджер" style="shape=umlActor;verticalLabelPosition=bottom;verticalAlign=top;html=1;outlineConnect=0;" parent="1" vertex="1">
          <mxGeometry x="280" y="307.5" width="30" height="60" as="geometry" />
        </mxCell>
        <mxCell id="Dje9QthW423mXFM0m1nJ-13" style="edgeStyle=orthogonalEdgeStyle;rounded=0;orthogonalLoop=1;jettySize=auto;html=1;exitX=1;exitY=0;exitDx=0;exitDy=0;entryX=0.5;entryY=1;entryDx=0;entryDy=0;" parent="1" source="Dje9QthW423mXFM0m1nJ-10" target="Dje9QthW423mXFM0m1nJ-12" edge="1">
          <mxGeometry relative="1" as="geometry" />
        </mxCell>
        <mxCell id="Dje9QthW423mXFM0m1nJ-14" style="edgeStyle=orthogonalEdgeStyle;rounded=0;orthogonalLoop=1;jettySize=auto;html=1;exitX=0;exitY=0;exitDx=0;exitDy=0;entryX=0.5;entryY=1;entryDx=0;entryDy=0;" parent="1" source="Dje9QthW423mXFM0m1nJ-10" target="Dje9QthW423mXFM0m1nJ-16" edge="1">
          <mxGeometry relative="1" as="geometry">
            <mxPoint x="140" y="160" as="targetPoint" />
          </mxGeometry>
        </mxCell>
        <mxCell id="Dje9QthW423mXFM0m1nJ-10" value="найм персонала" style="ellipse;whiteSpace=wrap;html=1;" parent="1" vertex="1">
          <mxGeometry x="235" y="200" width="120" height="80" as="geometry" />
        </mxCell>
        <mxCell id="Dje9QthW423mXFM0m1nJ-12" value="добавить персонал" style="ellipse;whiteSpace=wrap;html=1;" parent="1" vertex="1">
          <mxGeometry x="360" y="100" width="120" height="80" as="geometry" />
        </mxCell>
        <mxCell id="Dje9QthW423mXFM0m1nJ-16" value="удалить персонал" style="ellipse;whiteSpace=wrap;html=1;" parent="1" vertex="1">
          <mxGeometry x="100" y="100" width="120" height="80" as="geometry" />
        </mxCell>
        <mxCell id="Dje9QthW423mXFM0m1nJ-19" style="edgeStyle=orthogonalEdgeStyle;rounded=0;orthogonalLoop=1;jettySize=auto;html=1;exitX=0.5;exitY=0;exitDx=0;exitDy=0;exitPerimeter=0;entryX=0.5;entryY=1;entryDx=0;entryDy=0;" parent="1" source="Dje9QthW423mXFM0m1nJ-17" target="Dje9QthW423mXFM0m1nJ-18" edge="1">
          <mxGeometry relative="1" as="geometry" />
        </mxCell>
        <mxCell id="Dje9QthW423mXFM0m1nJ-26" style="edgeStyle=orthogonalEdgeStyle;rounded=0;orthogonalLoop=1;jettySize=auto;html=1;exitX=0;exitY=0.3333333333333333;exitDx=0;exitDy=0;exitPerimeter=0;entryX=1;entryY=0.3333333333333333;entryDx=0;entryDy=0;entryPerimeter=0;" parent="1" source="Dje9QthW423mXFM0m1nJ-17" target="Dje9QthW423mXFM0m1nJ-2" edge="1">
          <mxGeometry relative="1" as="geometry" />
        </mxCell>
        <mxCell id="Dje9QthW423mXFM0m1nJ-33" style="edgeStyle=orthogonalEdgeStyle;rounded=0;orthogonalLoop=1;jettySize=auto;html=1;exitX=1;exitY=0.3333333333333333;exitDx=0;exitDy=0;exitPerimeter=0;entryX=0;entryY=0.3333333333333333;entryDx=0;entryDy=0;entryPerimeter=0;" parent="1" source="Dje9QthW423mXFM0m1nJ-17" target="Dje9QthW423mXFM0m1nJ-27" edge="1">
          <mxGeometry relative="1" as="geometry" />
        </mxCell>
        <mxCell id="Dje9QthW423mXFM0m1nJ-17" value="Директор" style="shape=umlActor;verticalLabelPosition=bottom;verticalAlign=top;html=1;outlineConnect=0;" parent="1" vertex="1">
          <mxGeometry x="610" y="427.5" width="30" height="60" as="geometry" />
        </mxCell>
        <mxCell id="Dje9QthW423mXFM0m1nJ-21" style="edgeStyle=orthogonalEdgeStyle;rounded=0;orthogonalLoop=1;jettySize=auto;html=1;exitX=0;exitY=0;exitDx=0;exitDy=0;entryX=0.5;entryY=1;entryDx=0;entryDy=0;" parent="1" source="Dje9QthW423mXFM0m1nJ-18" target="Dje9QthW423mXFM0m1nJ-20" edge="1">
          <mxGeometry relative="1" as="geometry" />
        </mxCell>
        <mxCell id="Dje9QthW423mXFM0m1nJ-22" style="edgeStyle=orthogonalEdgeStyle;rounded=0;orthogonalLoop=1;jettySize=auto;html=1;exitX=0.5;exitY=0;exitDx=0;exitDy=0;entryX=0.5;entryY=1;entryDx=0;entryDy=0;" parent="1" source="Dje9QthW423mXFM0m1nJ-18" target="Dje9QthW423mXFM0m1nJ-23" edge="1">
          <mxGeometry relative="1" as="geometry">
            <mxPoint x="625" y="267.5" as="targetPoint" />
          </mxGeometry>
        </mxCell>
        <mxCell id="Dje9QthW423mXFM0m1nJ-25" style="edgeStyle=orthogonalEdgeStyle;rounded=0;orthogonalLoop=1;jettySize=auto;html=1;exitX=1;exitY=0;exitDx=0;exitDy=0;entryX=0.5;entryY=1;entryDx=0;entryDy=0;" parent="1" source="Dje9QthW423mXFM0m1nJ-18" target="Dje9QthW423mXFM0m1nJ-24" edge="1">
          <mxGeometry relative="1" as="geometry" />
        </mxCell>
        <mxCell id="Dje9QthW423mXFM0m1nJ-18" value="Производит контроль над организацией предприятия&amp;nbsp;" style="ellipse;whiteSpace=wrap;html=1;" parent="1" vertex="1">
          <mxGeometry x="565" y="327.5" width="120" height="80" as="geometry" />
        </mxCell>
        <mxCell id="Dje9QthW423mXFM0m1nJ-20" value="&amp;nbsp;вводит соблюдение технологии приготовления блюд и санитарных норм" style="ellipse;whiteSpace=wrap;html=1;" parent="1" vertex="1">
          <mxGeometry x="420" y="217.5" width="130" height="90" as="geometry" />
        </mxCell>
        <mxCell id="Dje9QthW423mXFM0m1nJ-23" value="вводит условия работы для персонала" style="ellipse;whiteSpace=wrap;html=1;" parent="1" vertex="1">
          <mxGeometry x="565" y="217.5" width="120" height="80" as="geometry" />
        </mxCell>
        <mxCell id="Dje9QthW423mXFM0m1nJ-24" value="вводит информацию контроля о инвентаризации&amp;nbsp;" style="ellipse;whiteSpace=wrap;html=1;" parent="1" vertex="1">
          <mxGeometry x="700" y="212.5" width="130" height="90" as="geometry" />
        </mxCell>
        <mxCell id="Dje9QthW423mXFM0m1nJ-30" style="edgeStyle=orthogonalEdgeStyle;rounded=0;orthogonalLoop=1;jettySize=auto;html=1;exitX=0.5;exitY=0;exitDx=0;exitDy=0;exitPerimeter=0;entryX=0.5;entryY=1;entryDx=0;entryDy=0;" parent="1" source="Dje9QthW423mXFM0m1nJ-27" target="Dje9QthW423mXFM0m1nJ-29" edge="1">
          <mxGeometry relative="1" as="geometry" />
        </mxCell>
        <mxCell id="Dje9QthW423mXFM0m1nJ-32" style="edgeStyle=orthogonalEdgeStyle;rounded=0;orthogonalLoop=1;jettySize=auto;html=1;exitX=0.5;exitY=0;exitDx=0;exitDy=0;exitPerimeter=0;entryX=0.5;entryY=1;entryDx=0;entryDy=0;" parent="1" source="Dje9QthW423mXFM0m1nJ-27" target="Dje9QthW423mXFM0m1nJ-31" edge="1">
          <mxGeometry relative="1" as="geometry" />
        </mxCell>
        <mxCell id="Dje9QthW423mXFM0m1nJ-27" value="Бухгалтер" style="shape=umlActor;verticalLabelPosition=bottom;verticalAlign=top;html=1;outlineConnect=0;" parent="1" vertex="1">
          <mxGeometry x="965" y="382.5" width="30" height="60" as="geometry" />
        </mxCell>
        <mxCell id="Dje9QthW423mXFM0m1nJ-29" value="вводит информацию о сборе средств" style="ellipse;whiteSpace=wrap;html=1;" parent="1" vertex="1">
          <mxGeometry x="850" y="250" width="120" height="80" as="geometry" />
        </mxCell>
        <mxCell id="Dje9QthW423mXFM0m1nJ-31" value="вводит выполнение финансового плана" style="ellipse;whiteSpace=wrap;html=1;" parent="1" vertex="1">
          <mxGeometry x="990" y="250" width="120" height="80" as="geometry" />
        </mxCell>
        <mxCell id="Dje9QthW423mXFM0m1nJ-36" style="edgeStyle=orthogonalEdgeStyle;rounded=0;orthogonalLoop=1;jettySize=auto;html=1;exitX=0.5;exitY=0;exitDx=0;exitDy=0;exitPerimeter=0;entryX=0.5;entryY=1;entryDx=0;entryDy=0;" parent="1" source="Dje9QthW423mXFM0m1nJ-34" target="Dje9QthW423mXFM0m1nJ-37" edge="1">
          <mxGeometry relative="1" as="geometry">
            <mxPoint x="130" y="270" as="targetPoint" />
          </mxGeometry>
        </mxCell>
        <mxCell id="Dje9QthW423mXFM0m1nJ-38" style="edgeStyle=orthogonalEdgeStyle;rounded=0;orthogonalLoop=1;jettySize=auto;html=1;exitX=0.5;exitY=0;exitDx=0;exitDy=0;exitPerimeter=0;entryX=0.5;entryY=1;entryDx=0;entryDy=0;" parent="1" source="Dje9QthW423mXFM0m1nJ-34" target="Dje9QthW423mXFM0m1nJ-39" edge="1">
          <mxGeometry relative="1" as="geometry">
            <mxPoint x="180" y="290" as="targetPoint" />
          </mxGeometry>
        </mxCell>
        <mxCell id="Dje9QthW423mXFM0m1nJ-45" style="edgeStyle=orthogonalEdgeStyle;rounded=0;orthogonalLoop=1;jettySize=auto;html=1;entryX=0.5;entryY=1;entryDx=0;entryDy=0;exitX=0.5;exitY=0;exitDx=0;exitDy=0;exitPerimeter=0;" parent="1" source="Dje9QthW423mXFM0m1nJ-34" target="Dje9QthW423mXFM0m1nJ-46" edge="1">
          <mxGeometry relative="1" as="geometry">
            <mxPoint x="150" y="420" as="targetPoint" />
            <mxPoint x="160" y="390" as="sourcePoint" />
          </mxGeometry>
        </mxCell>
        <mxCell id="fx5-U89eKFGWpvig1Pxb-2" style="edgeStyle=orthogonalEdgeStyle;rounded=0;orthogonalLoop=1;jettySize=auto;html=1;exitX=0.5;exitY=0;exitDx=0;exitDy=0;exitPerimeter=0;entryX=0.5;entryY=1;entryDx=0;entryDy=0;" edge="1" parent="1" source="Dje9QthW423mXFM0m1nJ-34" target="fx5-U89eKFGWpvig1Pxb-1">
          <mxGeometry relative="1" as="geometry" />
        </mxCell>
        <mxCell id="Dje9QthW423mXFM0m1nJ-34" value="Техник-технолог" style="shape=umlActor;verticalLabelPosition=bottom;verticalAlign=top;html=1;outlineConnect=0;" parent="1" vertex="1">
          <mxGeometry x="100" y="520" width="30" height="60" as="geometry" />
        </mxCell>
        <mxCell id="Dje9QthW423mXFM0m1nJ-37" value="вводит качество выпускаемой продукции" style="ellipse;whiteSpace=wrap;html=1;" parent="1" vertex="1">
          <mxGeometry x="-160" y="327.5" width="120" height="80" as="geometry" />
        </mxCell>
        <mxCell id="Dje9QthW423mXFM0m1nJ-39" value="составление меню" style="ellipse;whiteSpace=wrap;html=1;" parent="1" vertex="1">
          <mxGeometry x="-250" y="400" width="120" height="80" as="geometry" />
        </mxCell>
        <mxCell id="Dje9QthW423mXFM0m1nJ-46" value="ведет отчет о работоспособности технологий" style="ellipse;whiteSpace=wrap;html=1;" parent="1" vertex="1">
          <mxGeometry x="-50" y="280" width="120" height="80" as="geometry" />
        </mxCell>
        <mxCell id="Dje9QthW423mXFM0m1nJ-50" style="edgeStyle=orthogonalEdgeStyle;rounded=0;orthogonalLoop=1;jettySize=auto;html=1;exitX=0.5;exitY=0;exitDx=0;exitDy=0;exitPerimeter=0;entryX=0.5;entryY=1;entryDx=0;entryDy=0;" parent="1" source="Dje9QthW423mXFM0m1nJ-48" target="Dje9QthW423mXFM0m1nJ-49" edge="1">
          <mxGeometry relative="1" as="geometry" />
        </mxCell>
        <mxCell id="Dje9QthW423mXFM0m1nJ-51" style="edgeStyle=orthogonalEdgeStyle;rounded=0;orthogonalLoop=1;jettySize=auto;html=1;exitX=0.5;exitY=0;exitDx=0;exitDy=0;exitPerimeter=0;entryX=0.5;entryY=1;entryDx=0;entryDy=0;" parent="1" source="Dje9QthW423mXFM0m1nJ-48" target="Dje9QthW423mXFM0m1nJ-52" edge="1">
          <mxGeometry relative="1" as="geometry">
            <mxPoint x="440" y="610" as="targetPoint" />
          </mxGeometry>
        </mxCell>
        <mxCell id="Dje9QthW423mXFM0m1nJ-53" style="edgeStyle=orthogonalEdgeStyle;rounded=0;orthogonalLoop=1;jettySize=auto;html=1;exitX=0.5;exitY=0;exitDx=0;exitDy=0;exitPerimeter=0;entryX=0.5;entryY=1;entryDx=0;entryDy=0;" parent="1" source="Dje9QthW423mXFM0m1nJ-48" target="Dje9QthW423mXFM0m1nJ-54" edge="1">
          <mxGeometry relative="1" as="geometry">
            <mxPoint x="560" y="610" as="targetPoint" />
          </mxGeometry>
        </mxCell>
        <mxCell id="Dje9QthW423mXFM0m1nJ-48" value="Шеф-повар" style="shape=umlActor;verticalLabelPosition=bottom;verticalAlign=top;html=1;outlineConnect=0;" parent="1" vertex="1">
          <mxGeometry x="490" y="660" width="30" height="60" as="geometry" />
        </mxCell>
        <mxCell id="Dje9QthW423mXFM0m1nJ-49" value="ведение отчета о поставке продуктов" style="ellipse;whiteSpace=wrap;html=1;" parent="1" vertex="1">
          <mxGeometry x="325" y="540" width="120" height="80" as="geometry" />
        </mxCell>
        <mxCell id="Dje9QthW423mXFM0m1nJ-52" value="вводит новые рецепты&amp;nbsp;" style="ellipse;whiteSpace=wrap;html=1;" parent="1" vertex="1">
          <mxGeometry x="445" y="530" width="120" height="80" as="geometry" />
        </mxCell>
        <mxCell id="Dje9QthW423mXFM0m1nJ-54" value="вводит ежедневные задачи&amp;nbsp;" style="ellipse;whiteSpace=wrap;html=1;" parent="1" vertex="1">
          <mxGeometry x="565" y="540" width="120" height="80" as="geometry" />
        </mxCell>
        <mxCell id="fx5-U89eKFGWpvig1Pxb-1" value="Ведет информацию о имеющимся оборудовании" style="ellipse;whiteSpace=wrap;html=1;" vertex="1" parent="1">
          <mxGeometry x="70" y="240" width="140" height="90" as="geometry" />
        </mxCell>
      </root>
    </mxGraphModel>
  </diagram>
</mxfile>
